<svg xmlns="http://www.w3.org/2000/svg" viewBox="0 0 67.55 66.99"><defs><style>.a{fill:#ffb000;}.b{fill:#ff0090;}.c{fill:#3860ff;}.d{fill:#00aeff;}</style></defs><title>Asset 1</title><path class="a" d="M33.77,0a33.77,33.77,0,0,0-25,56.5A28.71,28.71,0,0,1,2.85,39a29.28,29.28,0,0,1,58.56,0A29,29,0,0,1,39.85,67,33.77,33.77,0,0,0,33.77,0Z"/><path class="b" d="M40.31,46.46a14.3,14.3,0,1,0-13.88-.37,12.09,12.09,0,0,1-4.58-6.32,12.4,12.4,0,1,1,18.46,6.69Z"/><path class="c" d="M57.23,47A21.83,21.83,0,0,0,44.36,18.93c-.57-.22-1.16-.4-1.74-.56A19.59,19.59,0,1,1,15,38.08,21.83,21.83,0,0,0,57.23,47Z"/><path class="d" d="M8.31,34.14a17.24,17.24,0,0,0,4.8,13.48A25,25,0,0,1,12,36.71c1-9,6.38-16.11,13.05-18.4A17.31,17.31,0,0,0,8.31,34.14Z"/></svg>